<mxfile host="65bd71144e">
    <diagram id="96MiMXq667dVLl4SEGZ4" name="Page-1">
        <mxGraphModel dx="970" dy="696" grid="1" gridSize="10" guides="1" tooltips="1" connect="1" arrows="1" fold="1" page="1" pageScale="1" pageWidth="827" pageHeight="1169" math="0" shadow="0">
            <root>
                <mxCell id="0"/>
                <mxCell id="1" parent="0"/>
                <mxCell id="3" value="&lt;h1&gt;Architecture stakeholders (layers)&lt;/h1&gt;" style="text;html=1;strokeColor=none;fillColor=none;spacing=5;spacingTop=-20;whiteSpace=wrap;overflow=hidden;rounded=0;" vertex="1" parent="1">
                    <mxGeometry x="40" y="10" width="760" height="70" as="geometry"/>
                </mxCell>
                <mxCell id="4" value="View" style="rounded=0;whiteSpace=wrap;html=1;" vertex="1" parent="1">
                    <mxGeometry x="40" y="140" width="120" height="60" as="geometry"/>
                </mxCell>
                <mxCell id="5" value="Presententation" style="rounded=0;whiteSpace=wrap;html=1;" vertex="1" parent="1">
                    <mxGeometry x="200" y="140" width="120" height="60" as="geometry"/>
                </mxCell>
                <mxCell id="6" value="Business logic" style="rounded=0;whiteSpace=wrap;html=1;" vertex="1" parent="1">
                    <mxGeometry x="360" y="140" width="120" height="60" as="geometry"/>
                </mxCell>
                <mxCell id="7" value="Data" style="rounded=0;whiteSpace=wrap;html=1;" vertex="1" parent="1">
                    <mxGeometry x="520" y="140" width="120" height="60" as="geometry"/>
                </mxCell>
                <mxCell id="8" value="Service" style="rounded=0;whiteSpace=wrap;html=1;" vertex="1" parent="1">
                    <mxGeometry x="680" y="140" width="120" height="60" as="geometry"/>
                </mxCell>
                <mxCell id="9" value="UI&lt;br&gt;&amp;nbsp;(View / Presentation)" style="rounded=0;whiteSpace=wrap;html=1;" vertex="1" parent="1">
                    <mxGeometry x="194" y="280" width="120" height="60" as="geometry"/>
                </mxCell>
                <mxCell id="10" value="Domain&lt;br&gt;(Business logic / Data)" style="rounded=0;whiteSpace=wrap;html=1;" vertex="1" parent="1">
                    <mxGeometry x="357" y="280" width="126" height="60" as="geometry"/>
                </mxCell>
                <mxCell id="11" value="Service" style="rounded=0;whiteSpace=wrap;html=1;" vertex="1" parent="1">
                    <mxGeometry x="520" y="280" width="120" height="60" as="geometry"/>
                </mxCell>
                <mxCell id="13" value="Versione completa" style="text;html=1;strokeColor=none;fillColor=none;align=center;verticalAlign=middle;whiteSpace=wrap;rounded=0;" vertex="1" parent="1">
                    <mxGeometry x="40" y="100" width="120" height="30" as="geometry"/>
                </mxCell>
                <mxCell id="14" value="Versione semplificata" style="text;html=1;strokeColor=none;fillColor=none;align=center;verticalAlign=middle;whiteSpace=wrap;rounded=0;" vertex="1" parent="1">
                    <mxGeometry x="40" y="250" width="120" height="30" as="geometry"/>
                </mxCell>
                <mxCell id="15" value="" style="endArrow=none;html=1;" edge="1" parent="1">
                    <mxGeometry width="50" height="50" relative="1" as="geometry">
                        <mxPoint x="40" y="240" as="sourcePoint"/>
                        <mxPoint x="800" y="240" as="targetPoint"/>
                    </mxGeometry>
                </mxCell>
                <mxCell id="19" value="View" style="swimlane;" vertex="1" parent="1">
                    <mxGeometry x="92" y="385" width="200" height="200" as="geometry">
                        <mxRectangle x="70" y="410" width="60" height="23" as="alternateBounds"/>
                    </mxGeometry>
                </mxCell>
                <mxCell id="22" value="- gestire l'aggiornamento dell'interfaccia utente" style="text;html=1;strokeColor=none;fillColor=none;align=center;verticalAlign=middle;whiteSpace=wrap;rounded=0;" vertex="1" parent="19">
                    <mxGeometry y="65" width="200" height="30" as="geometry"/>
                </mxCell>
                <mxCell id="23" value="- reagire all'input dell'utente" style="text;html=1;strokeColor=none;fillColor=none;align=center;verticalAlign=middle;whiteSpace=wrap;rounded=0;" vertex="1" parent="19">
                    <mxGeometry y="95" width="200" height="30" as="geometry"/>
                </mxCell>
                <mxCell id="24" value="- navigazione" style="text;html=1;strokeColor=none;fillColor=none;align=center;verticalAlign=middle;whiteSpace=wrap;rounded=0;" vertex="1" parent="19">
                    <mxGeometry y="125" width="200" height="30" as="geometry"/>
                </mxCell>
                <mxCell id="25" value="Presentation" style="swimlane;" vertex="1" parent="1">
                    <mxGeometry x="312" y="385" width="200" height="200" as="geometry">
                        <mxRectangle x="70" y="410" width="60" height="23" as="alternateBounds"/>
                    </mxGeometry>
                </mxCell>
                <mxCell id="26" value="- aggiornare la View" style="text;html=1;strokeColor=none;fillColor=none;align=center;verticalAlign=middle;whiteSpace=wrap;rounded=0;" vertex="1" parent="25">
                    <mxGeometry y="65" width="200" height="30" as="geometry"/>
                </mxCell>
                <mxCell id="27" value="- Raccogliere gli eventi di View e inputarli al layer di Business logic" style="text;html=1;strokeColor=none;fillColor=none;align=center;verticalAlign=middle;whiteSpace=wrap;rounded=0;" vertex="1" parent="25">
                    <mxGeometry y="95" width="200" height="30" as="geometry"/>
                </mxCell>
                <mxCell id="29" value="Business logic" style="swimlane;" vertex="1" parent="1">
                    <mxGeometry x="535" y="385" width="200" height="200" as="geometry">
                        <mxRectangle x="70" y="410" width="60" height="23" as="alternateBounds"/>
                    </mxGeometry>
                </mxCell>
                <mxCell id="30" value="- descrive e implementa i comportamenti dell'applicazione di livello logico, mantiene e aggiorna lo stato applicativo." style="text;html=1;strokeColor=none;fillColor=none;align=center;verticalAlign=middle;whiteSpace=wrap;rounded=0;" vertex="1" parent="29">
                    <mxGeometry y="35" width="200" height="55" as="geometry"/>
                </mxCell>
                <mxCell id="32" value="- gestisce i dati delegando e orchestrando le operazioni sul layer di Data" style="text;html=1;strokeColor=none;fillColor=none;align=center;verticalAlign=middle;whiteSpace=wrap;rounded=0;" vertex="1" parent="29">
                    <mxGeometry x="-3" y="112.5" width="200" height="55" as="geometry"/>
                </mxCell>
                <mxCell id="33" value="Data" style="swimlane;" vertex="1" parent="1">
                    <mxGeometry x="200" y="600" width="200" height="200" as="geometry">
                        <mxRectangle x="70" y="410" width="60" height="23" as="alternateBounds"/>
                    </mxGeometry>
                </mxCell>
                <mxCell id="34" value="- Reperisce i dati, CRUD locale, interfacciamento ai DataSource (Service)" style="text;html=1;strokeColor=none;fillColor=none;align=center;verticalAlign=middle;whiteSpace=wrap;rounded=0;" vertex="1" parent="33">
                    <mxGeometry y="85" width="200" height="30" as="geometry"/>
                </mxCell>
                <mxCell id="40" value="Service" style="swimlane;" vertex="1" parent="1">
                    <mxGeometry x="430" y="600" width="200" height="200" as="geometry">
                        <mxRectangle x="70" y="410" width="60" height="23" as="alternateBounds"/>
                    </mxGeometry>
                </mxCell>
                <mxCell id="41" value="- Implementa i DataSource stabilendo connessioni locali e remote verso API REST e sistemi di raccolta dati locali" style="text;html=1;strokeColor=none;fillColor=none;align=center;verticalAlign=middle;whiteSpace=wrap;rounded=0;" vertex="1" parent="40">
                    <mxGeometry y="72.5" width="200" height="55" as="geometry"/>
                </mxCell>
            </root>
        </mxGraphModel>
    </diagram>
</mxfile>